<?xml version="1.0" encoding="UTF-8"?>
<svg id="Capa_2" data-name="Capa 2" xmlns="http://www.w3.org/2000/svg" viewBox="0 0 155.78 61.21">
  <defs>
    <style>
      .cls-1 {
        fill: #fff;
      }
    </style>
  </defs>
  <g id="Capa_1-2" data-name="Capa 1">
    <g>
      <g>
        <path class="cls-1" d="m61.19,27.1c-1.74,1.11-4.51,1.66-8.31,1.66s-6.57-.55-8.31-1.66c-1.74-1.11-2.62-2.94-2.62-5.49V.92C41.96.31,42.42,0,43.35,0h5.02c.9,0,1.35.31,1.35.92v15.77c0,1.18.23,2,.7,2.47.47.47,1.29.71,2.46.71s1.99-.24,2.46-.71c.47-.47.7-1.3.7-2.47V.92C56.04.31,56.49,0,57.39,0h5.02c.93,0,1.4.31,1.4.92v20.7c0,2.55-.87,4.39-2.62,5.49Z"/>
        <path class="cls-1" d="m95.87,1.1v26.56c0,.73-.54,1.1-1.62,1.1h-5.29c-1.12,0-1.87-.31-2.24-.94l-9.02-14.55v28.97c0,.73-.56,1.1-1.68,1.1h-5.73c-1.08,0-1.62-.37-1.62-1.1V1.1C68.67.37,69.21,0,70.29,0h5.29c1.12,0,1.87.31,2.24.94l9.02,14.5V1.1C86.85.37,87.41,0,88.53,0h5.73c1.08,0,1.62.37,1.62,1.1Z"/>
        <path class="cls-1" d="m109.33,0h10.24c1.5,0,2.37.36,2.59,1.09l7.65,26.4c.21.85-.31,1.27-1.54,1.27h-6.65c-1.07,0-1.72-.35-1.95-1.06l-.97-4.65h-8.56l-1,4.65c-.22.7-.87,1.06-1.94,1.06h-6.6c-1.23,0-1.74-.42-1.53-1.26l7.65-26.4C106.97.37,107.83,0,109.33,0Zm1.98,17.68h6.29l-3.05-11.57h-.25l-2.99,11.57Z"/>
        <path class="cls-1" d="m146.01,21.68l-.02,20.58c0,.73-.54,1.1-1.62,1.1h-6.04c-1.12,0-1.68-.37-1.68-1.1l.02-20.58L127.07,1.3c-.21-.27-.21-.56,0-.86.21-.3.66-.45,1.37-.45h6.35c1.12,0,1.83.34,2.12,1.02l3.11,7.21,1.24,3.91h.19l1.18-3.91,3.17-7.21C146.09.34,146.8,0,147.92,0h6.35c.7,0,1.16.15,1.37.45.21.3.19.58-.06.86l-9.56,20.37Z"/>
        <path class="cls-1" d="m63.81,42.52c0,.56-.37.84-1.1.84H24.44c-.73,0-1.1-.27-1.1-.81v-8.08c0-.56.36-.84,1.1-.84h38.27c.73,0,1.1.27,1.1.81v8.08Z"/>
        <path class="cls-1" d="m129.82,42.52c0,.56-.35.84-1.06.84h-45.13c-.71,0-1.06-.27-1.06-.81v-8.08c0-.56.35-.84,1.06-.84h45.13c.71,0,1.06.27,1.06.81v8.08Z"/>
        <path class="cls-1" d="m37.09,20.65v6.43c0,1.12-.37,1.68-1.1,1.68h-10.97c-1.12,0-1.68-.37-1.68-1.1v-15.48l-5.42,8.39c-.37.6-.93.9-1.68.9-.79,0-1.37-.3-1.74-.9l-5.42-8.39v30.08c0,.73-.54,1.1-1.62,1.1H1.62c-1.08,0-1.62-.37-1.62-1.1V1.1C0,.37.54,0,1.62,0h5.48c1.08,0,1.78.29,2.12.86l7.03,10.92L23.21.86c.42-.57,1.14-.86,2.18-.86h5.42c1.12,0,1.68.37,1.68,1.1v17.94h3.5c.73,0,1.1.54,1.1,1.62Z"/>
      </g>
      <g>
        <g>
          <path class="cls-1" d="m19.69,60.75v-8.32c0-.2.1-.31.31-.31h1.15c.21,0,.32.1.32.31v8.32c0,.21-.11.32-.32.32h-1.15c-.2,0-.31-.11-.31-.32Z"/>
          <path class="cls-1" d="m30.2,58.91c-.13,0-.22-.05-.28-.16l-2.24-3.69v5.69c0,.21-.1.32-.31.32h-1.1c-.21,0-.32-.11-.32-.32v-8.32c0-.2.1-.31.32-.31h1.08c.18,0,.3.06.37.18l2.51,4.12,2.5-4.11c.07-.13.18-.19.35-.19h1.08c.21,0,.31.1.31.31v8.32c0,.21-.11.32-.32.32h-1.1c-.2,0-.31-.11-.31-.32v-5.69l-2.24,3.69c-.07.11-.16.16-.28.16Z"/>
          <path class="cls-1" d="m40.32,61.07h-1.13c-.21,0-.32-.11-.32-.32v-8.32c0-.2.1-.31.31-.31h2.76c1.28,0,2.23.25,2.84.75.62.5.93,1.31.93,2.42s-.31,1.94-.93,2.43c-.62.5-1.57.74-2.84.74h-1.3v2.27c0,.21-.11.32-.32.32Zm.32-4.11h1.28c.7,0,1.21-.13,1.53-.38.31-.25.47-.68.47-1.27s-.16-1.02-.47-1.27c-.31-.25-.82-.38-1.53-.38h-1.28v3.3Z"/>
          <path class="cls-1" d="m50.12,52.13h2.84c1.25,0,2.18.24,2.79.72.61.48.91,1.24.91,2.29,0,1.49-.73,2.4-2.19,2.71l2.16,2.83c.08.09.1.18.06.26-.04.08-.12.13-.25.13h-1.2c-.17,0-.32-.09-.44-.26l-2.06-2.72h-1.18v2.67c0,.21-.11.32-.32.32h-1.13c-.21,0-.32-.11-.32-.32v-8.32c0-.2.11-.31.32-.31Zm1.45,4.48h1.36c.71,0,1.22-.12,1.52-.36.3-.24.45-.61.45-1.12,0-.53-.15-.91-.45-1.14-.3-.23-.8-.34-1.5-.34h-1.37v2.96Z"/>
          <path class="cls-1" d="m65.9,57.25h-3.39v2.3h3.6c.21,0,.32.1.32.3v.9c0,.21-.11.32-.32.32h-5.04c-.21,0-.32-.11-.32-.32v-8.32c0-.2.1-.31.31-.31h5c.21,0,.32.1.32.31v.9c0,.21-.11.32-.32.32h-3.55v2.12h3.39c.2,0,.31.1.31.32v.84c0,.21-.1.32-.31.32Z"/>
          <path class="cls-1" d="m76.42,58.64c0,.85-.31,1.48-.93,1.9s-1.44.63-2.48.63c-1.18,0-2.09-.16-2.75-.5-.19-.09-.25-.22-.19-.38l.31-.81c.07-.2.19-.27.38-.19.61.25,1.28.38,2.02.38.57,0,1.03-.09,1.36-.27.33-.18.5-.44.5-.8,0-.14-.04-.28-.11-.4s-.15-.22-.23-.3c-.08-.08-.22-.16-.41-.27-.2-.1-.35-.18-.46-.22-.11-.05-.3-.12-.57-.23-.35-.14-.62-.25-.81-.32s-.43-.2-.7-.36c-.27-.17-.47-.33-.61-.51s-.26-.4-.37-.67c-.1-.27-.16-.58-.16-.91,0-1.63,1.08-2.44,3.23-2.44.97,0,1.78.15,2.42.44.19.09.25.22.19.38l-.29.79c-.08.19-.21.25-.41.18-.48-.19-1.07-.28-1.75-.28-1.08,0-1.61.32-1.61.97,0,.38.24.7.72.94.15.08.48.22.98.42.27.12.44.19.52.22.07.03.23.1.48.21.25.11.41.19.49.25.08.06.21.15.39.27.18.12.3.24.37.35.07.11.15.24.24.4.09.16.16.33.19.51.03.18.05.38.05.6Z"/>
          <path class="cls-1" d="m80.46,60.75v-8.32c0-.2.1-.31.31-.31h1.15c.21,0,.32.1.32.31v8.32c0,.21-.11.32-.32.32h-1.15c-.2,0-.31-.11-.31-.32Z"/>
          <path class="cls-1" d="m87.41,53.15c.69-.78,1.67-1.17,2.93-1.17s2.24.39,2.93,1.17c.69.78,1.04,1.93,1.04,3.45s-.35,2.67-1.04,3.45c-.69.78-1.67,1.16-2.94,1.16s-2.24-.39-2.92-1.17c-.68-.78-1.03-1.93-1.03-3.44s.35-2.67,1.04-3.45Zm2.93,6.51c1.43,0,2.14-1.02,2.14-3.06s-.72-3.07-2.14-3.07-2.16,1.02-2.16,3.07.72,3.06,2.16,3.06Z"/>
          <path class="cls-1" d="m105.49,52.42v8.33c0,.21-.1.32-.3.32h-1.14c-.18,0-.31-.07-.39-.22l-3.57-5.75v5.65c0,.21-.1.32-.31.32h-1.09c-.21,0-.32-.11-.32-.32v-8.32c0-.2.1-.31.32-.31h1.12c.2,0,.33.07.4.2l3.57,5.77v-5.67c0-.2.1-.31.3-.31h1.11c.2,0,.3.1.3.29Z"/>
          <path class="cls-1" d="m115.06,57.25h-3.39v2.3h3.6c.21,0,.32.1.32.3v.9c0,.21-.11.32-.32.32h-5.04c-.21,0-.32-.11-.32-.32v-8.32c0-.2.1-.31.31-.31h5c.21,0,.32.1.32.31v.9c0,.21-.11.32-.32.32h-3.55v2.12h3.39c.2,0,.31.1.31.32v.84c0,.21-.1.32-.31.32Z"/>
          <path class="cls-1" d="m125.57,58.64c0,.85-.31,1.48-.93,1.9s-1.44.63-2.48.63c-1.18,0-2.09-.16-2.75-.5-.19-.09-.25-.22-.19-.38l.31-.81c.07-.2.19-.27.38-.19.61.25,1.28.38,2.02.38.57,0,1.03-.09,1.36-.27.33-.18.5-.44.5-.8,0-.14-.04-.28-.11-.4s-.15-.22-.23-.3c-.08-.08-.22-.16-.41-.27-.2-.1-.35-.18-.46-.22-.11-.05-.3-.12-.57-.23-.35-.14-.62-.25-.81-.32s-.43-.2-.7-.36c-.27-.17-.47-.33-.61-.51s-.26-.4-.37-.67c-.1-.27-.16-.58-.16-.91,0-1.63,1.08-2.44,3.23-2.44.97,0,1.78.15,2.42.44.19.09.25.22.19.38l-.29.79c-.08.19-.21.25-.41.18-.48-.19-1.07-.28-1.75-.28-1.08,0-1.61.32-1.61.97,0,.38.24.7.72.94.15.08.48.22.98.42.27.12.44.19.52.22.07.03.23.1.48.21.25.11.41.19.49.25.08.06.21.15.39.27.18.12.3.24.37.35.07.11.15.24.24.4.09.16.16.33.19.51.03.18.05.38.05.6Z"/>
        </g>
        <g>
          <circle class="cls-1" cx="133.72" cy="56.74" r="1.41"/>
          <circle class="cls-1" cx="12.63" cy="56.74" r="1.41"/>
        </g>
      </g>
    </g>
  </g>
</svg>